<mxfile host="app.diagrams.net" agent="Mozilla/5.0 (X11; Linux x86_64) AppleWebKit/537.36 (KHTML, like Gecko) Chrome/138.0.0.0 Safari/537.36" version="28.2.5">
  <diagram name="Page-1" id="13e1069c-82ec-6db2-03f1-153e76fe0fe0">
    <mxGraphModel dx="868" dy="489" grid="1" gridSize="10" guides="1" tooltips="1" connect="1" arrows="1" fold="1" page="1" pageScale="1" pageWidth="1100" pageHeight="850" background="none" math="0" shadow="0">
      <root>
        <mxCell id="0" />
        <mxCell id="1" parent="0" />
        <mxCell id="wD-4M0XuhcJqUvJzKwls-1" value="&lt;span style=&quot;font-size: 20px;&quot;&gt;App start&lt;/span&gt;" style="swimlane;html=1;childLayout=stackLayout;resizeParent=1;resizeParentMax=0;horizontal=1;startSize=40;horizontalStack=0;whiteSpace=wrap;" vertex="1" parent="1">
          <mxGeometry x="40" y="40" width="750" height="520" as="geometry" />
        </mxCell>
        <mxCell id="wD-4M0XuhcJqUvJzKwls-2" value="App" style="swimlane;html=1;startSize=20;horizontal=0;" vertex="1" parent="wD-4M0XuhcJqUvJzKwls-1">
          <mxGeometry y="40" width="750" height="260" as="geometry" />
        </mxCell>
        <mxCell id="wD-4M0XuhcJqUvJzKwls-5" value="" style="points=[[0.145,0.145,0],[0.5,0,0],[0.855,0.145,0],[1,0.5,0],[0.855,0.855,0],[0.5,1,0],[0.145,0.855,0],[0,0.5,0]];shape=mxgraph.bpmn.event;html=1;verticalLabelPosition=bottom;labelBackgroundColor=#ffffff;verticalAlign=top;align=center;perimeter=ellipsePerimeter;outlineConnect=0;aspect=fixed;outline=standard;symbol=general;" vertex="1" parent="wD-4M0XuhcJqUvJzKwls-2">
          <mxGeometry x="40" y="70" width="50" height="50" as="geometry" />
        </mxCell>
        <mxCell id="wD-4M0XuhcJqUvJzKwls-12" style="edgeStyle=orthogonalEdgeStyle;rounded=0;orthogonalLoop=1;jettySize=auto;html=1;exitX=1;exitY=0.5;exitDx=0;exitDy=0;exitPerimeter=0;" edge="1" parent="wD-4M0XuhcJqUvJzKwls-2" source="wD-4M0XuhcJqUvJzKwls-6" target="wD-4M0XuhcJqUvJzKwls-11">
          <mxGeometry relative="1" as="geometry" />
        </mxCell>
        <mxCell id="wD-4M0XuhcJqUvJzKwls-14" value="Yes" style="edgeLabel;html=1;align=center;verticalAlign=middle;resizable=0;points=[];" vertex="1" connectable="0" parent="wD-4M0XuhcJqUvJzKwls-12">
          <mxGeometry x="0.1436" relative="1" as="geometry">
            <mxPoint as="offset" />
          </mxGeometry>
        </mxCell>
        <mxCell id="wD-4M0XuhcJqUvJzKwls-6" value="Are there any&amp;nbsp;&lt;div&gt;questions present in&lt;/div&gt;&lt;div&gt;local storage?&lt;/div&gt;" style="points=[[0.25,0.25,0],[0.5,0,0],[0.75,0.25,0],[1,0.5,0],[0.75,0.75,0],[0.5,1,0],[0.25,0.75,0],[0,0.5,0]];shape=mxgraph.bpmn.gateway2;html=1;verticalLabelPosition=top;labelBackgroundColor=#ffffff;verticalAlign=bottom;align=center;perimeter=rhombusPerimeter;outlineConnect=0;outline=none;symbol=none;labelPosition=center;" vertex="1" parent="wD-4M0XuhcJqUvJzKwls-2">
          <mxGeometry x="140" y="70" width="50" height="50" as="geometry" />
        </mxCell>
        <mxCell id="wD-4M0XuhcJqUvJzKwls-7" style="edgeStyle=orthogonalEdgeStyle;rounded=0;orthogonalLoop=1;jettySize=auto;html=1;exitX=1;exitY=0.5;exitDx=0;exitDy=0;exitPerimeter=0;entryX=0;entryY=0.5;entryDx=0;entryDy=0;entryPerimeter=0;" edge="1" parent="wD-4M0XuhcJqUvJzKwls-2" source="wD-4M0XuhcJqUvJzKwls-5" target="wD-4M0XuhcJqUvJzKwls-6">
          <mxGeometry relative="1" as="geometry" />
        </mxCell>
        <mxCell id="wD-4M0XuhcJqUvJzKwls-8" value="Ask the backend&amp;nbsp;&lt;div&gt;for&amp;nbsp;&lt;span style=&quot;background-color: transparent; color: light-dark(rgb(0, 0, 0), rgb(255, 255, 255));&quot;&gt;all questions&lt;/span&gt;&lt;/div&gt;" style="points=[[0.25,0,0],[0.5,0,0],[0.75,0,0],[1,0.25,0],[1,0.5,0],[1,0.75,0],[0.75,1,0],[0.5,1,0],[0.25,1,0],[0,0.75,0],[0,0.5,0],[0,0.25,0]];shape=mxgraph.bpmn.task2;whiteSpace=wrap;rectStyle=rounded;size=10;html=1;container=1;expand=0;collapsible=0;taskMarker=send;" vertex="1" parent="wD-4M0XuhcJqUvJzKwls-2">
          <mxGeometry x="105" y="160" width="120" height="70" as="geometry" />
        </mxCell>
        <mxCell id="wD-4M0XuhcJqUvJzKwls-9" style="edgeStyle=orthogonalEdgeStyle;rounded=0;orthogonalLoop=1;jettySize=auto;html=1;exitX=0.5;exitY=1;exitDx=0;exitDy=0;exitPerimeter=0;entryX=0.5;entryY=0;entryDx=0;entryDy=0;entryPerimeter=0;" edge="1" parent="wD-4M0XuhcJqUvJzKwls-2" source="wD-4M0XuhcJqUvJzKwls-6" target="wD-4M0XuhcJqUvJzKwls-8">
          <mxGeometry relative="1" as="geometry" />
        </mxCell>
        <mxCell id="wD-4M0XuhcJqUvJzKwls-10" value="No" style="edgeLabel;html=1;align=center;verticalAlign=middle;resizable=0;points=[];" vertex="1" connectable="0" parent="wD-4M0XuhcJqUvJzKwls-9">
          <mxGeometry x="0.0495" y="-1" relative="1" as="geometry">
            <mxPoint as="offset" />
          </mxGeometry>
        </mxCell>
        <mxCell id="wD-4M0XuhcJqUvJzKwls-11" value="Ask the backend&amp;nbsp;&lt;div&gt;for&amp;nbsp;&lt;span style=&quot;background-color: transparent; color: light-dark(rgb(0, 0, 0), rgb(255, 255, 255));&quot;&gt;all questions modified since last synchronization&lt;/span&gt;&lt;/div&gt;" style="points=[[0.25,0,0],[0.5,0,0],[0.75,0,0],[1,0.25,0],[1,0.5,0],[1,0.75,0],[0.75,1,0],[0.5,1,0],[0.25,1,0],[0,0.75,0],[0,0.5,0],[0,0.25,0]];shape=mxgraph.bpmn.task2;whiteSpace=wrap;rectStyle=rounded;size=10;html=1;container=1;expand=0;collapsible=0;taskMarker=send;" vertex="1" parent="wD-4M0XuhcJqUvJzKwls-2">
          <mxGeometry x="270" y="47.5" width="160" height="95" as="geometry" />
        </mxCell>
        <mxCell id="wD-4M0XuhcJqUvJzKwls-3" value="Backend" style="swimlane;html=1;startSize=20;horizontal=0;" vertex="1" parent="wD-4M0XuhcJqUvJzKwls-1">
          <mxGeometry y="300" width="750" height="220" as="geometry" />
        </mxCell>
        <mxCell id="wD-4M0XuhcJqUvJzKwls-18" style="edgeStyle=orthogonalEdgeStyle;rounded=0;orthogonalLoop=1;jettySize=auto;html=1;exitX=1;exitY=0.5;exitDx=0;exitDy=0;exitPerimeter=0;" edge="1" parent="wD-4M0XuhcJqUvJzKwls-3" source="wD-4M0XuhcJqUvJzKwls-15" target="wD-4M0XuhcJqUvJzKwls-17">
          <mxGeometry relative="1" as="geometry" />
        </mxCell>
        <mxCell id="wD-4M0XuhcJqUvJzKwls-15" value="Receive the synchronization request" style="points=[[0.25,0,0],[0.5,0,0],[0.75,0,0],[1,0.25,0],[1,0.5,0],[1,0.75,0],[0.75,1,0],[0.5,1,0],[0.25,1,0],[0,0.75,0],[0,0.5,0],[0,0.25,0]];shape=mxgraph.bpmn.task2;whiteSpace=wrap;rectStyle=rounded;size=10;html=1;container=1;expand=0;collapsible=0;taskMarker=receive;" vertex="1" parent="wD-4M0XuhcJqUvJzKwls-3">
          <mxGeometry x="105" y="45" width="120" height="80" as="geometry" />
        </mxCell>
        <mxCell id="wD-4M0XuhcJqUvJzKwls-20" style="edgeStyle=orthogonalEdgeStyle;rounded=0;orthogonalLoop=1;jettySize=auto;html=1;exitX=1;exitY=0.5;exitDx=0;exitDy=0;exitPerimeter=0;" edge="1" parent="wD-4M0XuhcJqUvJzKwls-3" source="wD-4M0XuhcJqUvJzKwls-17" target="wD-4M0XuhcJqUvJzKwls-19">
          <mxGeometry relative="1" as="geometry" />
        </mxCell>
        <mxCell id="wD-4M0XuhcJqUvJzKwls-21" value="No" style="edgeLabel;html=1;align=center;verticalAlign=middle;resizable=0;points=[];" vertex="1" connectable="0" parent="wD-4M0XuhcJqUvJzKwls-20">
          <mxGeometry x="-0.0333" y="3" relative="1" as="geometry">
            <mxPoint as="offset" />
          </mxGeometry>
        </mxCell>
        <mxCell id="wD-4M0XuhcJqUvJzKwls-17" value="Does the request contain&lt;div&gt;a last synchronization date?&lt;/div&gt;" style="points=[[0.25,0.25,0],[0.5,0,0],[0.75,0.25,0],[1,0.5,0],[0.75,0.75,0],[0.5,1,0],[0.25,0.75,0],[0,0.5,0]];shape=mxgraph.bpmn.gateway2;html=1;verticalLabelPosition=top;labelBackgroundColor=#ffffff;verticalAlign=bottom;align=center;perimeter=rhombusPerimeter;outlineConnect=0;outline=none;symbol=none;labelPosition=center;" vertex="1" parent="wD-4M0XuhcJqUvJzKwls-3">
          <mxGeometry x="300" y="60" width="50" height="50" as="geometry" />
        </mxCell>
        <mxCell id="wD-4M0XuhcJqUvJzKwls-19" value="Retrieve all questions alongside their answers" style="points=[[0.25,0,0],[0.5,0,0],[0.75,0,0],[1,0.25,0],[1,0.5,0],[1,0.75,0],[0.75,1,0],[0.5,1,0],[0.25,1,0],[0,0.75,0],[0,0.5,0],[0,0.25,0]];shape=mxgraph.bpmn.task2;whiteSpace=wrap;rectStyle=rounded;size=10;html=1;container=1;expand=0;collapsible=0;taskMarker=abstract;" vertex="1" parent="wD-4M0XuhcJqUvJzKwls-3">
          <mxGeometry x="440" y="45" width="120" height="80" as="geometry" />
        </mxCell>
        <mxCell id="wD-4M0XuhcJqUvJzKwls-16" style="edgeStyle=orthogonalEdgeStyle;rounded=0;orthogonalLoop=1;jettySize=auto;html=1;exitX=0.5;exitY=1;exitDx=0;exitDy=0;exitPerimeter=0;entryX=0.5;entryY=0;entryDx=0;entryDy=0;entryPerimeter=0;" edge="1" parent="wD-4M0XuhcJqUvJzKwls-1" source="wD-4M0XuhcJqUvJzKwls-8" target="wD-4M0XuhcJqUvJzKwls-15">
          <mxGeometry relative="1" as="geometry" />
        </mxCell>
      </root>
    </mxGraphModel>
  </diagram>
</mxfile>
